<?xml version="1.0" encoding="UTF-8" standalone="no"?>
<svg
   xmlns:dc="http://purl.org/dc/elements/1.1/"
   xmlns:cc="http://creativecommons.org/ns#"
   xmlns:rdf="http://www.w3.org/1999/02/22-rdf-syntax-ns#"
   xmlns:svg="http://www.w3.org/2000/svg"
   xmlns="http://www.w3.org/2000/svg"
   xmlns:xlink="http://www.w3.org/1999/xlink"
   width="3in"
   height="3in"
   viewBox="0 0 76.200001 76.200003"
   version="1.1"
   id="svg8">
  <defs
     id="defs2">
    <linearGradient
       id="linearGradient1331">
      <stop
         style="stop-color:#00c1f2;stop-opacity:1"
         offset="0"
         id="stop1327" />
      <stop
         style="stop-color:#82ffdc;stop-opacity:1"
         offset="1"
         id="stop1329" />
    </linearGradient>
    <linearGradient
       xlink:href="#linearGradient1331"
       id="linearGradient5830"
       gradientUnits="userSpaceOnUse"
       x1="24.379463"
       y1="224.23956"
       x2="65.389877"
       y2="281.31396"
       gradientTransform="translate(-1.1713415e-6,8.5560246e-6)" />
    <linearGradient
       xlink:href="#linearGradient1331"
       id="linearGradient5832"
       gradientUnits="userSpaceOnUse"
       x1="24.379463"
       y1="224.23956"
       x2="65.389877"
       y2="281.31396"
       gradientTransform="translate(-6.3499995,6.35)" />
    <linearGradient
       xlink:href="#linearGradient1331"
       id="linearGradient4509"
       gradientUnits="userSpaceOnUse"
       gradientTransform="translate(-1.1713415e-6,8.5560246e-6)"
       x1="24.379463"
       y1="224.23956"
       x2="65.389877"
       y2="281.31396" />
    <linearGradient
       xlink:href="#linearGradient1331"
       id="linearGradient4511"
       gradientUnits="userSpaceOnUse"
       gradientTransform="translate(-1.1713415e-6,8.5560246e-6)"
       x1="24.379463"
       y1="224.23956"
       x2="65.389877"
       y2="281.31396" />
    <linearGradient
       xlink:href="#linearGradient1331"
       id="linearGradient4513"
       gradientUnits="userSpaceOnUse"
       gradientTransform="translate(-1.1713415e-6,8.5560246e-6)"
       x1="24.379463"
       y1="224.23956"
       x2="65.389877"
       y2="281.31396" />
    <linearGradient
       xlink:href="#linearGradient1331"
       id="linearGradient4515"
       gradientUnits="userSpaceOnUse"
       gradientTransform="translate(-1.1713415e-6,8.5560246e-6)"
       x1="24.379463"
       y1="224.23956"
       x2="65.389877"
       y2="281.31396" />
    <linearGradient
       xlink:href="#linearGradient1331"
       id="linearGradient4517"
       gradientUnits="userSpaceOnUse"
       gradientTransform="translate(-1.1713415e-6,8.5560246e-6)"
       x1="24.379463"
       y1="224.23956"
       x2="65.389877"
       y2="281.31396" />
    <linearGradient
       xlink:href="#linearGradient1331"
       id="linearGradient4519"
       gradientUnits="userSpaceOnUse"
       gradientTransform="translate(-1.1713415e-6,8.5560246e-6)"
       x1="24.379463"
       y1="224.23956"
       x2="65.389877"
       y2="281.31396" />
  </defs>
  <metadata
     id="metadata5">
    <rdf:RDF>
      <cc:Work
         rdf:about="">
        <dc:format>image/svg+xml</dc:format>
        <dc:type
           rdf:resource="http://purl.org/dc/dcmitype/StillImage" />
        <dc:title></dc:title>
      </cc:Work>
    </rdf:RDF>
  </metadata>
  <g
     id="layer1"
     transform="translate(0,-220.79998)">
    <circle
       style="opacity:1;fill:#ffffff;fill-opacity:1;fill-rule:nonzero;stroke-width:0.2433555"
       id="path4495"
       cy="258.89999"
       cx="38.099998"
       r="35" />
    <text
       xml:space="preserve"
       style="font-style:normal;font-variant:normal;font-weight:normal;font-stretch:normal;font-size:10.58333302px;line-height:1.25;font-family:'Courier Prime';-inkscape-font-specification:'Courier Prime, Normal';font-variant-ligatures:normal;font-variant-caps:normal;font-variant-numeric:normal;font-feature-settings:normal;text-align:start;letter-spacing:0px;word-spacing:0px;writing-mode:lr-tb;text-anchor:start;fill:#000000;fill-opacity:1;stroke:none;stroke-width:0.26458332"
       x="45.357143"
       y="252.96576"
       id="text3717"><tspan
         id="tspan3719"
         x="45.357143"
         y="261.57498" /></text>
    <path
       style="fill:url(#linearGradient5832);fill-opacity:1;fill-rule:nonzero;stroke-width:0.26458332"
       d="M 39.236516,231.33129 A 27.308778,27.59226 2.3606744 0 0 10.81425,257.77513 27.308778,27.59226 2.3606744 0 0 36.963484,286.46867 27.308778,27.59226 2.3606744 0 0 65.38575,260.02483 27.308778,27.59226 2.3606744 0 0 39.236516,231.33129 Z m 0.772265,3.28503 A 24.379463,25.324403 2.3606744 0 1 63.324885,260.92359 24.379463,25.324403 2.3606744 0 1 37.922571,285.22193 24.379463,25.324403 2.3606744 0 1 14.606968,258.9152 24.379463,25.324403 2.3606744 0 1 40.008781,234.61632 Z"
       id="path3682" />
    <g
       id="text3723"
       style="font-style:normal;font-variant:normal;font-weight:bold;font-stretch:normal;font-size:9.87777805px;line-height:1.25;font-family:'Courier Prime Sans';-inkscape-font-specification:'Courier Prime Sans, Bold';font-variant-ligatures:normal;font-variant-caps:normal;font-variant-numeric:normal;font-feature-settings:normal;text-align:start;letter-spacing:0px;word-spacing:0px;writing-mode:lr-tb;text-anchor:start;fill:url(#linearGradient5830);fill-opacity:1;fill-rule:nonzero;stroke:none;stroke-width:0.26458332"
       aria-label="Feltix"
       transform="translate(-6.3499995,6.35)">
      <path
         id="path4496"
         style="font-style:normal;font-variant:normal;font-weight:bold;font-stretch:normal;font-size:9.87777805px;font-family:'Courier Prime Sans';-inkscape-font-specification:'Courier Prime Sans, Bold';font-variant-ligatures:normal;font-variant-caps:normal;font-variant-numeric:normal;font-feature-settings:normal;text-align:start;writing-mode:lr-tb;text-anchor:start;fill:url(#linearGradient4509);fill-opacity:1;fill-rule:nonzero;stroke-width:0.26458332"
         d="m 31.253906,250.05883 q 0.115755,0 0.178456,0.0482 0.0627,0.0482 0.09164,0.17363 0.03376,0.12058 0.03376,0.34727 0,0.22669 -0.03376,0.35209 -0.02894,0.12058 -0.09164,0.16881 -0.0627,0.0434 -0.178456,0.0434 h -2.49356 v 1.37459 h 2.09324 q 0.115755,0 0.178456,0.0482 0.0627,0.0482 0.09164,0.17363 0.03376,0.12058 0.03376,0.34727 0,0.22669 -0.03376,0.35209 -0.02894,0.12058 -0.09164,0.16881 -0.0627,0.0434 -0.178456,0.0434 h -2.09324 v 1.77973 q 0,0.16399 -0.07235,0.23634 -0.06752,0.0675 -0.23151,0.0675 H 27.85842 q -0.163987,0 -0.236334,-0.0675 -0.06752,-0.0724 -0.06752,-0.23634 v -5.11734 q 0,-0.16399 0.06752,-0.23151 0.07235,-0.0724 0.236334,-0.0724 z" />
      <path
         id="path4498"
         style="font-style:normal;font-variant:normal;font-weight:bold;font-stretch:normal;font-size:9.87777805px;font-family:'Courier Prime Sans';-inkscape-font-specification:'Courier Prime Sans, Bold';font-variant-ligatures:normal;font-variant-caps:normal;font-variant-numeric:normal;font-feature-settings:normal;text-align:start;writing-mode:lr-tb;text-anchor:start;fill:url(#linearGradient4511);fill-opacity:1;fill-rule:nonzero;stroke-width:0.26458332"
         d="m 35.445209,251.22121 q 0.733117,0 1.244369,0.31832 0.511252,0.31351 0.771701,0.87299 0.260449,0.55948 0.260449,1.28778 0,0.16398 -0.07235,0.23151 -0.06752,0.0675 -0.23151,0.0675 h -3.096452 q 0.09164,0.39067 0.371381,0.59325 0.279742,0.20257 0.704178,0.20257 0.844048,0 1.717036,-0.26528 0.05788,-0.0193 0.115755,-0.0193 0.106109,0 0.183279,0.0965 0.07717,0.0965 0.139871,0.32797 0.04823,0.17845 0.04823,0.30386 0,0.1254 -0.05788,0.19774 -0.05305,0.0675 -0.178455,0.11094 -0.49196,0.16398 -1.027328,0.2508 -0.530545,0.0916 -1.036974,0.0916 -0.704177,0 -1.210606,-0.29904 -0.501606,-0.29903 -0.766879,-0.82475 -0.260449,-0.53055 -0.260449,-1.21061 0,-0.67524 0.284565,-1.20578 0.289388,-0.53055 0.829579,-0.82958 0.540191,-0.29903 1.268484,-0.29903 z m 0,1.09485 q -0.438905,0 -0.718647,0.1881 -0.279741,0.18328 -0.38585,0.55466 h 2.151117 q -0.08199,-0.34727 -0.356912,-0.54501 -0.274918,-0.19775 -0.689708,-0.19775 z" />
      <path
         id="path4500"
         style="font-style:normal;font-variant:normal;font-weight:bold;font-stretch:normal;font-size:9.87777805px;font-family:'Courier Prime Sans';-inkscape-font-specification:'Courier Prime Sans, Bold';font-variant-ligatures:normal;font-variant-caps:normal;font-variant-numeric:normal;font-feature-settings:normal;text-align:start;writing-mode:lr-tb;text-anchor:start;fill:url(#linearGradient4513);fill-opacity:1;fill-rule:nonzero;stroke-width:0.26458332"
         d="m 43.277978,254.69868 q 0.16881,0 0.236334,0.11576 0.06752,0.11093 0.06752,0.42926 0,0.31833 -0.06752,0.42926 -0.06752,0.11093 -0.236334,0.11093 h -3.877799 q -0.16881,0 -0.236334,-0.11093 -0.06752,-0.11093 -0.06752,-0.42926 0,-0.31833 0.06752,-0.42926 0.06752,-0.11576 0.236334,-0.11576 h 1.316715 v -4.15754 h -1.12379 q -0.168809,0 -0.236333,-0.11093 -0.06752,-0.11093 -0.06752,-0.42926 0,-0.31832 0.06752,-0.42926 0.06752,-0.11575 0.236333,-0.11575 h 2.025716 q 0.163987,0 0.231511,0.0724 0.07235,0.0675 0.07235,0.23151 v 4.93888 z" />
      <path
         id="path4502"
         style="font-style:normal;font-variant:normal;font-weight:bold;font-stretch:normal;font-size:9.87777805px;font-family:'Courier Prime Sans';-inkscape-font-specification:'Courier Prime Sans, Bold';font-variant-ligatures:normal;font-variant-caps:normal;font-variant-numeric:normal;font-feature-settings:normal;text-align:start;writing-mode:lr-tb;text-anchor:start;fill:url(#linearGradient4515);fill-opacity:1;fill-rule:nonzero;stroke-width:0.26458332"
         d="m 49.523937,254.73727 q 0.08682,0.21704 0.08682,0.36173 0,0.11094 -0.05305,0.18811 -0.04823,0.0723 -0.149517,0.1254 -0.945334,0.47749 -1.721859,0.47749 -0.839225,0 -1.282954,-0.46785 -0.438905,-0.46784 -0.438905,-1.36494 v -1.3553 h -0.930865 q -0.168809,0 -0.236333,-0.11093 -0.06752,-0.11094 -0.06752,-0.42926 0,-0.31833 0.06752,-0.42926 0.06752,-0.11576 0.236333,-0.11576 h 0.930865 v -1.36012 q 0,-0.16399 0.144694,-0.23151 0.149517,-0.0724 0.49196,-0.0724 0.226687,0 0.347266,0.0338 0.125401,0.0289 0.173632,0.0916 0.04823,0.0627 0.04823,0.17846 v 1.36012 h 1.789382 q 0.16881,0 0.236334,0.11576 0.06752,0.11093 0.06752,0.42926 0,0.31832 -0.06752,0.42926 -0.06752,0.11093 -0.236334,0.11093 h -1.789382 v 1.26848 q 0,0.77653 0.622184,0.77653 0.41479,0 1.210607,-0.35209 0.08682,-0.0386 0.15434,-0.0386 0.217041,0 0.366558,0.38103 z" />
      <path
         id="path4504"
         style="font-style:normal;font-variant:normal;font-weight:bold;font-stretch:normal;font-size:9.87777805px;font-family:'Courier Prime Sans';-inkscape-font-specification:'Courier Prime Sans, Bold';font-variant-ligatures:normal;font-variant-caps:normal;font-variant-numeric:normal;font-feature-settings:normal;text-align:start;writing-mode:lr-tb;text-anchor:start;fill:url(#linearGradient4517);fill-opacity:1;fill-rule:nonzero;stroke-width:0.26458332"
         d="m 53.199164,249.20996 q 0.342443,0 0.477491,0.0724 0.13987,0.0675 0.13987,0.23151 v 0.79099 q 0,0.16399 -0.130224,0.23633 -0.125402,0.0675 -0.463021,0.0675 -0.337619,0 -0.47749,-0.0675 -0.135048,-0.0723 -0.135048,-0.23633 v -0.79099 q 0,-0.16881 0.125402,-0.23634 0.125401,-0.0675 0.46302,-0.0675 z m 0.313504,2.11735 q 0.163987,0 0.23151,0.0724 0.07235,0.0675 0.07235,0.23151 v 3.06751 h 1.355301 q 0.16881,0 0.236334,0.11576 0.06752,0.11093 0.06752,0.42926 0,0.31833 -0.06752,0.42926 -0.06752,0.11093 -0.236334,0.11093 H 51.29403 q -0.16881,0 -0.236334,-0.11093 -0.06752,-0.11093 -0.06752,-0.42926 0,-0.31833 0.06752,-0.42926 0.06752,-0.11576 0.236334,-0.11576 h 1.316715 v -2.28616 h -1.027327 q -0.16881,0 -0.236334,-0.11093 -0.06752,-0.11093 -0.06752,-0.42926 0,-0.31833 0.06752,-0.42926 0.06752,-0.11576 0.236334,-0.11576 z" />
      <path
         id="path4506"
         style="font-style:normal;font-variant:normal;font-weight:bold;font-stretch:normal;font-size:9.87777805px;font-family:'Courier Prime Sans';-inkscape-font-specification:'Courier Prime Sans, Bold';font-variant-ligatures:normal;font-variant-caps:normal;font-variant-numeric:normal;font-feature-settings:normal;text-align:start;writing-mode:lr-tb;text-anchor:start;fill:url(#linearGradient4519);fill-opacity:1;fill-rule:nonzero;stroke-width:0.26458332"
         d="m 61.234505,255.00254 q 0.110932,0.1254 0.110932,0.23634 0,0.10128 -0.09164,0.20739 -0.09164,0.10129 -0.279742,0.22186 -0.294211,0.18328 -0.472667,0.18328 -0.149517,0 -0.270095,-0.13504 l -1.162375,-1.36495 -1.162376,1.36495 q -0.120578,0.13504 -0.270095,0.13504 -0.178456,0 -0.472667,-0.18328 -0.188102,-0.12057 -0.279742,-0.22186 -0.09164,-0.10611 -0.09164,-0.20739 0,-0.11094 0.110933,-0.23634 l 1.321538,-1.47588 -1.273307,-1.418 q -0.110932,-0.1254 -0.110932,-0.23633 0,-0.10129 0.09164,-0.20257 0.09164,-0.10611 0.279742,-0.22669 0.294211,-0.18328 0.472667,-0.18328 0.149517,0 0.270096,0.13505 l 1.114144,1.30707 1.114144,-1.30707 q 0.120578,-0.13505 0.270095,-0.13505 0.178456,0 0.472667,0.18328 0.188102,0.12058 0.279742,0.22669 0.09164,0.10128 0.09164,0.20257 0,0.11093 -0.110932,0.23633 l -1.273307,1.418 z" />
    </g>
  </g>
</svg>
