<?xml version="1.0" encoding="UTF-8" standalone="no"?>
<svg
   xmlns:dc="http://purl.org/dc/elements/1.1/"
   xmlns:cc="http://creativecommons.org/ns#"
   xmlns:rdf="http://www.w3.org/1999/02/22-rdf-syntax-ns#"
   xmlns:svg="http://www.w3.org/2000/svg"
   xmlns="http://www.w3.org/2000/svg"
   xmlns:xlink="http://www.w3.org/1999/xlink"
   xmlns:sodipodi="http://sodipodi.sourceforge.net/DTD/sodipodi-0.dtd"
   xmlns:inkscape="http://www.inkscape.org/namespaces/inkscape"
   width="3in"
   height="3in"
   viewBox="0 0 76.200001 76.200003"
   version="1.1"
   id="svg8"
   inkscape:version="0.91 r13725"
   sodipodi:docname="wraparound.svg">
  <sodipodi:namedview
     pagecolor="#ffffff"
     bordercolor="#666666"
     borderopacity="1"
     objecttolerance="10"
     gridtolerance="10"
     guidetolerance="10"
     inkscape:pageopacity="0"
     inkscape:pageshadow="2"
     inkscape:window-width="1920"
     inkscape:window-height="1017"
     id="namedview28"
     showgrid="false"
     inkscape:zoom="3.4962963"
     inkscape:cx="159.43735"
     inkscape:cy="131.22723"
     inkscape:window-x="0"
     inkscape:window-y="30"
     inkscape:window-maximized="1"
     inkscape:current-layer="text3356" />
  <defs
     id="defs2">
    <linearGradient
       id="linearGradient1331">
      <stop
         style="stop-color:#00c1f2;stop-opacity:1"
         offset="0"
         id="stop1327" />
      <stop
         style="stop-color:#82ffdc;stop-opacity:1"
         offset="1"
         id="stop1329" />
    </linearGradient>
    <linearGradient
       xlink:href="#linearGradient1331"
       id="linearGradient5832"
       gradientUnits="userSpaceOnUse"
       x1="24.379463"
       y1="224.23956"
       x2="65.389877"
       y2="281.31396"
       gradientTransform="translate(-6.3499995,6.35)" />
    <linearGradient
       inkscape:collect="always"
       xlink:href="#linearGradient1331"
       id="linearGradient4170"
       x1="18.083038"
       y1="230.11827"
       x2="59.173649"
       y2="288.31763"
       gradientUnits="userSpaceOnUse"
       gradientTransform="translate(0.56444449,0.48372415)" />
  </defs>
  <metadata
     id="metadata5">
    <rdf:RDF>
      <cc:Work
         rdf:about="">
        <dc:format>image/svg+xml</dc:format>
        <dc:type
           rdf:resource="http://purl.org/dc/dcmitype/StillImage" />
        <dc:title />
      </cc:Work>
    </rdf:RDF>
  </metadata>
  <g
     id="layer1"
     transform="translate(0,-220.79998)">
    <circle
       style="opacity:1;fill:#ffffff;fill-opacity:1;fill-rule:nonzero;stroke-width:0.2433555"
       id="path4495"
       cy="258.89999"
       cx="38.099998"
       r="35" />
    <text
       xml:space="preserve"
       style="font-style:normal;font-variant:normal;font-weight:normal;font-stretch:normal;font-size:10.58333302px;line-height:1.25;font-family:'Courier Prime';-inkscape-font-specification:'Courier Prime, Normal';font-variant-ligatures:normal;font-variant-caps:normal;font-variant-numeric:normal;font-feature-settings:normal;text-align:start;letter-spacing:0px;word-spacing:0px;writing-mode:lr-tb;text-anchor:start;fill:#000000;fill-opacity:1;stroke:none;stroke-width:0.26458332"
       x="45.357143"
       y="252.96576"
       id="text3717"><tspan
         id="tspan3719"
         x="45.357143"
         y="261.57498" /></text>
    <path
       style="fill:url(#linearGradient5832);fill-opacity:1;fill-rule:nonzero;stroke-width:0.26458332"
       d="M 39.236516,231.33129 A 27.308778,27.59226 2.3606744 0 0 10.81425,257.77513 27.308778,27.59226 2.3606744 0 0 36.963484,286.46867 27.308778,27.59226 2.3606744 0 0 65.38575,260.02483 27.308778,27.59226 2.3606744 0 0 39.236516,231.33129 Z m 0.772265,3.28503 A 24.379463,25.324403 2.3606744 0 1 63.324885,260.92359 24.379463,25.324403 2.3606744 0 1 37.922571,285.22193 24.379463,25.324403 2.3606744 0 1 14.606968,258.9152 24.379463,25.324403 2.3606744 0 1 40.008781,234.61632 Z"
       id="path3682" />
    <g
       style="font-style:normal;font-variant:normal;font-weight:normal;font-stretch:normal;font-size:7.0555563px;line-height:125%;font-family:'Courier Prime Sans';-inkscape-font-specification:'Courier Prime Sans, Normal';text-align:start;letter-spacing:0px;word-spacing:0px;writing-mode:lr-tb;text-anchor:start;fill:url(#linearGradient4170);fill-opacity:1;fill-rule:nonzero;stroke:none;stroke-width:1px;stroke-linecap:butt;stroke-linejoin:miter;stroke-opacity:1"
       id="text3356">
      <path
         d="m 21.831708,257.61697 q 0.124023,0.0172 0.179145,0.062 0.05512,0.0448 0.05512,0.13092 0,0.0413 -0.0034,0.062 l -0.513319,3.71726 q -0.01723,0.12402 -0.08957,0.17225 -0.0689,0.0517 -0.206705,0.0517 -0.265273,0 -0.34451,-0.22393 l -0.713135,-2.01883 -0.713135,2.01883 q -0.07924,0.22393 -0.344509,0.22393 -0.137804,0 -0.210151,-0.0517 -0.0689,-0.0482 -0.08613,-0.17225 l -0.513319,-3.71726 q -0.0034,-0.0207 -0.0034,-0.062 0,-0.0861 0.05512,-0.13092 0.05512,-0.0448 0.179145,-0.062 0.02412,-0.003 0.0689,-0.003 0.103353,0 0.151585,0.0482 0.04823,0.0448 0.06201,0.15158 l 0.385851,3.03513 0.713135,-2.02227 q 0.02412,-0.0689 0.08268,-0.10335 0.06201,-0.0345 0.172255,-0.0345 0.110243,0 0.16881,0.0345 0.06201,0.0344 0.08613,0.10335 l 0.713135,2.02227 0.385851,-3.03513 q 0.01378,-0.1068 0.06201,-0.15158 0.04823,-0.0482 0.151585,-0.0482 0.04479,0 0.0689,0.003 z"
         style="font-style:normal;font-variant:normal;font-weight:normal;font-stretch:normal;font-size:7.0555563px;line-height:125%;font-family:'Courier Prime Sans';-inkscape-font-specification:'Courier Prime Sans, Normal';text-align:start;writing-mode:lr-tb;text-anchor:start;fill:url(#linearGradient4170);fill-opacity:1;fill-rule:nonzero"
         id="path3345" />
      <path
         d="m 25.442168,258.47824 q 0.223931,0 0.451307,0.0723 0.16881,0.0551 0.16881,0.22049 0,0.0551 -0.01378,0.1068 -0.03101,0.11368 -0.07579,0.17225 -0.04134,0.0551 -0.106798,0.0551 -0.0379,0 -0.07579,-0.0138 -0.192926,-0.062 -0.378961,-0.062 -0.396186,0 -0.744141,0.24116 -0.347954,0.24115 -0.558105,0.65112 -0.210151,0.40652 -0.210151,0.88539 l 0,0.74069 q 0,0.12058 -0.05857,0.17226 -0.05512,0.0517 -0.19637,0.0517 l -0.0069,0 q -0.141249,0 -0.199816,-0.0517 -0.05512,-0.0517 -0.05512,-0.17226 l 0,-2.8043 q 0,-0.12058 0.05168,-0.17226 0.05168,-0.0517 0.186035,-0.0517 l 0.0069,0 q 0.134359,0 0.186035,0.0517 0.05168,0.0517 0.05168,0.17226 l 0,0.80959 q 0.299723,-0.50643 0.70969,-0.78892 0.409966,-0.28595 0.868164,-0.28595 z"
         style="font-style:normal;font-variant:normal;font-weight:normal;font-stretch:normal;font-size:7.0555563px;line-height:125%;font-family:'Courier Prime Sans';-inkscape-font-specification:'Courier Prime Sans, Normal';text-align:start;writing-mode:lr-tb;text-anchor:start;fill:url(#linearGradient4170);fill-opacity:1;fill-rule:nonzero"
         id="path3347" />
      <path
         d="m 28.752905,258.47824 q 0.647678,0 0.971517,0.28939 0.323839,0.28939 0.323839,0.85783 l 0,1.92236 q 0,0.12058 -0.05168,0.17226 -0.05168,0.0517 -0.186035,0.0517 l -0.0069,0 q -0.134359,0 -0.186035,-0.0517 -0.05168,-0.0517 -0.05168,-0.17226 l 0,-0.23426 q -0.279052,0.23771 -0.606337,0.36862 -0.323839,0.13092 -0.685574,0.13092 -0.344509,0 -0.609782,-0.11714 -0.265272,-0.12057 -0.413411,-0.34795 -0.148139,-0.22738 -0.148139,-0.54088 0,-0.54777 0.382405,-0.80615 0.385851,-0.25839 0.999078,-0.25839 0.54777,0 1.047309,0.1757 l 0,-0.29283 q 0,-0.33417 -0.18948,-0.4892 -0.186035,-0.15848 -0.602892,-0.15848 -0.258382,0 -0.537435,0.0724 -0.279052,0.0723 -0.530544,0.19982 -0.05512,0.031 -0.106798,0.031 -0.110243,0 -0.189481,-0.16536 -0.0379,-0.0827 -0.0379,-0.13781 0,-0.12058 0.127469,-0.18603 0.289388,-0.15159 0.620117,-0.23082 0.334174,-0.0827 0.668349,-0.0827 z m -0.458198,2.8491 q 0.685574,0 1.236789,-0.56844 l 0,-0.37552 q -0.234266,-0.0758 -0.502984,-0.11369 -0.268717,-0.0413 -0.54088,-0.0413 -0.396186,0 -0.627007,0.13781 -0.227376,0.13436 -0.227376,0.43063 0,0.2515 0.172254,0.39274 0.1757,0.13781 0.489204,0.13781 z"
         style="font-style:normal;font-variant:normal;font-weight:normal;font-stretch:normal;font-size:7.0555563px;line-height:125%;font-family:'Courier Prime Sans';-inkscape-font-specification:'Courier Prime Sans, Normal';text-align:start;writing-mode:lr-tb;text-anchor:start;fill:url(#linearGradient4170);fill-opacity:1;fill-rule:nonzero"
         id="path3349" />
      <path
         d="m 33.055829,258.47824 q 0.427192,0 0.761366,0.20326 0.33762,0.19982 0.5271,0.57878 0.192925,0.37552 0.192925,0.88539 0,0.50987 -0.192925,0.88884 -0.18948,0.37551 -0.5271,0.57877 -0.334174,0.19982 -0.761366,0.19982 -0.647678,0 -1.092095,-0.56844 l 0,1.63986 q 0,0.12058 -0.05857,0.17226 -0.05512,0.0517 -0.19637,0.0517 l -0.0069,0 q -0.141249,0 -0.199816,-0.0517 -0.05512,-0.0517 -0.05512,-0.17226 l 0,-4.141 q 0,-0.12058 0.05168,-0.17226 0.05168,-0.0517 0.186035,-0.0517 l 0.0069,0 q 0.134359,0 0.186035,0.0517 0.05168,0.0517 0.05168,0.17226 l 0,0.32039 q 0.217041,-0.2825 0.502984,-0.43408 0.285943,-0.15159 0.623562,-0.15159 z m -0.03445,0.50988 q -0.306613,0 -0.54777,0.1378 -0.237712,0.13781 -0.375515,0.39963 -0.134359,0.26183 -0.134359,0.62012 0,0.35829 0.134359,0.62012 0.137803,0.26182 0.375515,0.39963 0.241157,0.1378 0.54777,0.1378 0.306614,0 0.5271,-0.14469 0.223931,-0.14814 0.341064,-0.40997 0.117134,-0.26527 0.117134,-0.60289 0,-0.33762 -0.117134,-0.59945 -0.117133,-0.26527 -0.341064,-0.40996 -0.220486,-0.14814 -0.5271,-0.14814 z"
         style="font-style:normal;font-variant:normal;font-weight:normal;font-stretch:normal;font-size:7.0555563px;line-height:125%;font-family:'Courier Prime Sans';-inkscape-font-specification:'Courier Prime Sans, Normal';text-align:start;writing-mode:lr-tb;text-anchor:start;fill:url(#linearGradient4170);fill-opacity:1;fill-rule:nonzero"
         id="path3351" />
      <path
         d="m 37.21406,258.47824 q 0.647678,0 0.971517,0.28939 0.323839,0.28939 0.323839,0.85783 l 0,1.92236 q 0,0.12058 -0.05168,0.17226 -0.05168,0.0517 -0.186035,0.0517 l -0.0069,0 q -0.134359,0 -0.186035,-0.0517 -0.05168,-0.0517 -0.05168,-0.17226 l 0,-0.23426 q -0.279053,0.23771 -0.606337,0.36862 -0.323839,0.13092 -0.685574,0.13092 -0.344509,0 -0.609782,-0.11714 -0.265272,-0.12057 -0.413411,-0.34795 -0.148139,-0.22738 -0.148139,-0.54088 0,-0.54777 0.382405,-0.80615 0.385851,-0.25839 0.999078,-0.25839 0.54777,0 1.047309,0.1757 l 0,-0.29283 q 0,-0.33417 -0.18948,-0.4892 -0.186035,-0.15848 -0.602892,-0.15848 -0.258382,0 -0.537435,0.0724 -0.279052,0.0723 -0.530544,0.19982 -0.05512,0.031 -0.106798,0.031 -0.110243,0 -0.189481,-0.16536 -0.0379,-0.0827 -0.0379,-0.13781 0,-0.12058 0.127469,-0.18603 0.289388,-0.15159 0.620117,-0.23082 0.334174,-0.0827 0.668349,-0.0827 z m -0.458198,2.8491 q 0.685574,0 1.236789,-0.56844 l 0,-0.37552 q -0.234266,-0.0758 -0.502984,-0.11369 -0.268717,-0.0413 -0.54088,-0.0413 -0.396186,0 -0.627007,0.13781 -0.227377,0.13436 -0.227377,0.43063 0,0.2515 0.172255,0.39274 0.1757,0.13781 0.489204,0.13781 z"
         style="font-style:normal;font-variant:normal;font-weight:normal;font-stretch:normal;font-size:7.0555563px;line-height:125%;font-family:'Courier Prime Sans';-inkscape-font-specification:'Courier Prime Sans, Normal';text-align:start;writing-mode:lr-tb;text-anchor:start;fill:url(#linearGradient4170);fill-opacity:1;fill-rule:nonzero"
         id="path3353" />
      <path
         d="m 42.364478,258.47824 q 0.223931,0 0.451307,0.0723 0.16881,0.0551 0.16881,0.22049 0,0.0551 -0.01378,0.1068 -0.03101,0.11368 -0.07579,0.17225 -0.04134,0.0551 -0.106798,0.0551 -0.0379,0 -0.07579,-0.0138 -0.192925,-0.062 -0.37896,-0.062 -0.396186,0 -0.744141,0.24116 -0.347955,0.24115 -0.558105,0.65112 -0.210151,0.40652 -0.210151,0.88539 l 0,0.74069 q 0,0.12058 -0.05857,0.17226 -0.05512,0.0517 -0.19637,0.0517 l -0.0069,0 q -0.141248,0 -0.199815,-0.0517 -0.05512,-0.0517 -0.05512,-0.17226 l 0,-2.8043 q 0,-0.12058 0.05168,-0.17226 0.05168,-0.0517 0.186035,-0.0517 l 0.0069,0 q 0.134359,0 0.186035,0.0517 0.05168,0.0517 0.05168,0.17226 l 0,0.80959 q 0.299723,-0.50643 0.70969,-0.78892 0.409966,-0.28595 0.868164,-0.28595 z"
         style="font-style:normal;font-variant:normal;font-weight:normal;font-stretch:normal;font-size:7.0555563px;line-height:125%;font-family:'Courier Prime Sans';-inkscape-font-specification:'Courier Prime Sans, Normal';text-align:start;writing-mode:lr-tb;text-anchor:start;fill:url(#linearGradient4170);fill-opacity:1;fill-rule:nonzero"
         id="path3355" />
      <path
         d="m 45.592532,258.47824 q 0.468533,0 0.844049,0.2136 0.37896,0.2136 0.592556,0.596 0.217041,0.37896 0.217041,0.85783 0,0.47887 -0.217041,0.86127 -0.213596,0.37896 -0.592556,0.59256 -0.375516,0.2136 -0.844049,0.2136 -0.468533,0 -0.847493,-0.2136 -0.375516,-0.2136 -0.592557,-0.59256 -0.213596,-0.3824 -0.213596,-0.86127 0,-0.47887 0.213596,-0.85783 0.217041,-0.3824 0.592557,-0.596 0.37896,-0.2136 0.847493,-0.2136 z m 0,0.50988 q -0.334174,0 -0.589111,0.14814 -0.254937,0.14469 -0.396186,0.40996 -0.137804,0.26183 -0.137804,0.59945 0,0.33762 0.137804,0.60289 0.141249,0.26183 0.396186,0.40997 0.254937,0.14469 0.589111,0.14469 0.334175,0 0.589112,-0.14469 0.254937,-0.14814 0.392741,-0.40997 0.141249,-0.26527 0.141249,-0.60289 0,-0.33762 -0.141249,-0.59945 -0.137804,-0.26527 -0.392741,-0.40996 -0.254937,-0.14814 -0.589112,-0.14814 z"
         style="font-style:normal;font-variant:normal;font-weight:normal;font-stretch:normal;font-size:7.0555563px;line-height:125%;font-family:'Courier Prime Sans';-inkscape-font-specification:'Courier Prime Sans, Normal';text-align:start;writing-mode:lr-tb;text-anchor:start;fill:url(#linearGradient4170);fill-opacity:1;fill-rule:nonzero"
         id="path3357" />
      <path
         d="m 50.987552,258.51959 q 0.141249,0 0.196371,0.0517 0.05857,0.0517 0.05857,0.17226 l 0,2.8043 q 0,0.12058 -0.05168,0.17226 -0.05168,0.0517 -0.186035,0.0517 l -0.0069,0 q -0.134358,0 -0.186035,-0.0517 -0.05168,-0.0517 -0.05168,-0.17226 l 0,-0.56155 q -0.234267,0.36174 -0.596002,0.59601 -0.361735,0.23082 -0.73036,0.23082 -0.52021,0 -0.806153,-0.29973 -0.285942,-0.29972 -0.285942,-0.82337 l 0,-1.94648 q 0,-0.12058 0.05512,-0.17226 0.05857,-0.0517 0.199816,-0.0517 l 0.0069,0 q 0.141249,0 0.19637,0.0517 0.05857,0.0517 0.05857,0.17226 l 0,1.8948 q 0,0.31006 0.151584,0.4892 0.155029,0.1757 0.475423,0.1757 0.296279,0 0.582222,-0.18603 0.289388,-0.18948 0.471978,-0.50988 0.186035,-0.32384 0.186035,-0.7028 l 0,-1.16099 q 0,-0.12058 0.05512,-0.17226 0.05857,-0.0517 0.199816,-0.0517 l 0.0069,0 z"
         style="font-style:normal;font-variant:normal;font-weight:normal;font-stretch:normal;font-size:7.0555563px;line-height:125%;font-family:'Courier Prime Sans';-inkscape-font-specification:'Courier Prime Sans, Normal';text-align:start;writing-mode:lr-tb;text-anchor:start;fill:url(#linearGradient4170);fill-opacity:1;fill-rule:nonzero"
         id="path3359" />
      <path
         d="m 54.442983,258.47824 q 0.52021,0 0.806152,0.29973 0.285943,0.29972 0.285943,0.82338 l 0,1.94647 q 0,0.12058 -0.05857,0.17226 -0.05512,0.0517 -0.196371,0.0517 l -0.0069,0 q -0.141249,0 -0.199815,-0.0517 -0.05512,-0.0517 -0.05512,-0.17226 l 0,-1.8948 q 0,-0.31006 -0.155029,-0.48576 -0.151584,-0.17914 -0.471978,-0.17914 -0.296279,0 -0.585667,0.18948 -0.285943,0.18603 -0.471978,0.50987 -0.18259,0.3204 -0.18259,0.69936 l 0,1.16099 q 0,0.12058 -0.05857,0.17226 -0.05512,0.0517 -0.19637,0.0517 l -0.0069,0 q -0.141249,0 -0.199816,-0.0517 -0.05512,-0.0517 -0.05512,-0.17226 l 0,-2.8043 q 0,-0.12058 0.05168,-0.17226 0.05168,-0.0517 0.186035,-0.0517 l 0.0069,0 q 0.134358,0 0.186035,0.0517 0.05168,0.0517 0.05168,0.17226 l 0,0.56155 q 0.234267,-0.36174 0.596002,-0.59256 0.361735,-0.23427 0.73036,-0.23427 z"
         style="font-style:normal;font-variant:normal;font-weight:normal;font-stretch:normal;font-size:7.0555563px;line-height:125%;font-family:'Courier Prime Sans';-inkscape-font-specification:'Courier Prime Sans, Normal';text-align:start;writing-mode:lr-tb;text-anchor:start;fill:url(#linearGradient4170);fill-opacity:1;fill-rule:nonzero"
         id="path3361" />
      <path
         d="m 59.483156,257.18289 q 0.141249,0 0.196371,0.0517 0.05857,0.0517 0.05857,0.17226 l 0,4.141 q 0,0.12058 -0.05168,0.17226 -0.05168,0.0517 -0.186035,0.0517 l -0.0069,0 q -0.134358,0 -0.186035,-0.0517 -0.05168,-0.0517 -0.05168,-0.17226 l 0,-0.32039 q -0.217041,0.2825 -0.502984,0.43408 -0.285943,0.15159 -0.623563,0.15159 -0.427191,0 -0.764811,-0.19982 -0.334174,-0.20326 -0.527099,-0.57877 -0.189481,-0.37897 -0.189481,-0.88884 0,-0.50987 0.189481,-0.88539 0.192925,-0.37896 0.527099,-0.57878 0.33762,-0.20326 0.764811,-0.20326 0.647678,0 1.092096,0.56844 l 0,-1.63986 q 0,-0.12058 0.05512,-0.17226 0.05857,-0.0517 0.199816,-0.0517 l 0.0069,0 z m -1.319472,1.80523 q -0.306613,0 -0.530544,0.14814 -0.220486,0.14469 -0.33762,0.40996 -0.117133,0.26183 -0.117133,0.59945 0,0.33762 0.117133,0.60289 0.117134,0.26183 0.33762,0.40997 0.223931,0.14469 0.530544,0.14469 0.306614,0 0.544326,-0.1378 0.241156,-0.13781 0.375515,-0.39963 0.137804,-0.26183 0.137804,-0.62012 0,-0.35829 -0.137804,-0.62012 -0.134359,-0.26182 -0.375515,-0.39963 -0.237712,-0.1378 -0.544326,-0.1378 z"
         style="font-style:normal;font-variant:normal;font-weight:normal;font-stretch:normal;font-size:7.0555563px;line-height:125%;font-family:'Courier Prime Sans';-inkscape-font-specification:'Courier Prime Sans, Normal';text-align:start;writing-mode:lr-tb;text-anchor:start;fill:url(#linearGradient4170);fill-opacity:1;fill-rule:nonzero"
         id="path3363" />
    </g>
  </g>
</svg>
